<?xml version="1.0" encoding="utf-8"?>
<!-- Generator: Adobe Illustrator 27.8.1, SVG Export Plug-In . SVG Version: 6.00 Build 0)  -->
<svg version="1.1" id="Layer_1" xmlns="http://www.w3.org/2000/svg" xmlns:xlink="http://www.w3.org/1999/xlink" x="0px" y="0px"
	 viewBox="0 0 800 800" style="enable-background:new 0 0 800 800;" xml:space="preserve">
<style type="text/css">
	.st0{fill:#AD0000;}
	.st1{fill:#E25A5A;}
	.st2{fill:#FFFF8D;}
	.st3{fill:#FFF349;}
	.st4{fill:#FFEA00;}
</style>
<path class="st0" d="M700,150H100c-27.6,0-50,22.4-50,50v400c0,27.6,22.4,50,50,50h450.5l149.7,99.8L700,650c27.6,0,50-22.4,50-50
	V200C750,172.4,727.6,150,700,150z"/>
<path class="st1" d="M500,400c0-98-40.2-186.5-105.1-250H100c-27.6,0-50,22.4-50,50v400c0,27.6,22.4,50,50,50h294.9
	C459.8,586.5,500,498,500,400z"/>
<path class="st2" d="M150,400c0,27.6,22.4,50,50,50s50-22.4,50-50s-22.4-50-50-50S150,372.4,150,400z"/>
<path class="st3" d="M350,400c0,27.6,22.4,50,50,50s50-22.4,50-50s-22.4-50-50-50S350,372.4,350,400z"/>
<path class="st4" d="M550,400c0,27.6,22.4,50,50,50s50-22.4,50-50s-22.4-50-50-50S550,372.4,550,400z"/>
</svg>
